<?xml version="1.0" standalone="no"?>
<!DOCTYPE svg PUBLIC "-//W3C//DTD SVG 20010904//EN"
 "http://www.w3.org/TR/2001/REC-SVG-20010904/DTD/svg10.dtd">
<svg version="1.0" xmlns="http://www.w3.org/2000/svg"
 width="374.000000pt" height="374.000000pt" viewBox="0 0 374.000000 374.000000"
 preserveAspectRatio="xMidYMid meet">
<metadata>
Created by potrace 1.14, written by Peter Selinger 2001-2017
</metadata>
<g transform="translate(0.000000,374.000000) scale(0.100000,-0.100000)"
fill="#000000" stroke="none">
<path d="M3534 3302 c6 -10 -103 -34 -117 -25 -6 3 -7 2 -4 -4 4 -6 -12 -16
-36 -23 -23 -6 -68 -25 -99 -41 -32 -15 -58 -25 -58 -21 0 4 -4 2 -8 -3 -12
-17 -66 -50 -82 -50 -8 -1 -14 -6 -13 -13 2 -6 -6 -16 -17 -22 -11 -6 -35 -26
-54 -45 -23 -23 -41 -33 -56 -30 -11 2 -18 0 -15 -6 4 -5 11 -7 16 -4 5 4 9 2
9 -4 0 -5 -3 -11 -7 -13 -5 -1 -25 -24 -45 -49 -27 -34 -34 -49 -26 -57 8 -8
1 -8 -25 0 -22 7 -37 18 -37 27 0 12 -2 13 -8 3 -7 -10 -22 -11 -63 -5 -30 5
-372 9 -761 8 -466 0 -708 3 -708 10 0 7 -3 7 -8 0 -4 -6 -72 -10 -167 -10
-152 0 -261 -12 -314 -36 -21 -9 -23 -8 -12 5 9 10 9 16 1 21 -6 4 -9 13 -6
21 3 8 0 11 -10 7 -8 -3 -14 1 -14 11 0 9 -4 16 -9 16 -5 0 -23 19 -40 42 -17
23 -31 38 -31 33 0 -5 -16 8 -35 28 -19 20 -35 34 -35 30 0 -5 -4 -3 -8 2 -4
6 -28 24 -54 40 -27 17 -48 34 -48 38 0 5 -4 6 -9 2 -5 -3 -16 2 -24 10 -9 8
-22 15 -29 15 -8 0 -18 4 -24 8 -27 25 -186 69 -275 78 -62 6 -67 5 -74 -15
-3 -12 -11 -18 -17 -15 -7 5 -9 1 -5 -9 4 -10 1 -30 -5 -45 -6 -15 -10 -33 -9
-39 1 -7 -3 -13 -8 -13 -6 0 -8 -7 -5 -15 4 -8 3 -23 -2 -33 -4 -9 -9 -75 -10
-145 -2 -71 -7 -133 -10 -139 -5 -7 -2 -8 6 -3 9 6 12 -1 8 -28 -2 -20 0 -33
4 -31 4 3 8 -2 8 -11 0 -18 36 -130 52 -162 5 -11 7 -27 3 -34 -5 -8 -4 -10 4
-5 6 4 14 0 18 -11 10 -28 64 -105 90 -131 14 -12 21 -27 17 -34 -4 -6 -3 -8
4 -4 6 3 16 0 24 -6 18 -18 98 -56 123 -60 11 -2 23 -7 28 -13 4 -6 10 -5 16
3 6 11 10 9 14 -7 3 -12 0 -21 -6 -21 -7 0 -5 -5 3 -10 14 -9 7 -14 -13 -11
-5 1 -6 -3 -2 -9 3 -6 11 -8 16 -5 13 9 11 -9 -3 -24 -11 -10 -10 -12 1 -9 10
2 18 -13 27 -51 7 -30 10 -59 7 -65 -3 -5 -1 -6 5 -2 8 5 12 0 12 -14 0 -11 4
-29 10 -40 5 -11 15 -29 20 -40 6 -12 8 -25 5 -30 -4 -6 -1 -10 5 -10 6 0 8
-4 5 -10 -3 -5 -2 -10 4 -10 10 0 27 -38 23 -52 -1 -5 3 -8 9 -8 5 0 8 -4 5
-9 -4 -5 -2 -11 3 -13 5 -1 11 -10 13 -18 2 -8 9 -21 16 -28 7 -8 10 -18 7
-23 -4 -5 -2 -9 4 -9 15 0 43 -58 35 -72 -4 -6 -3 -8 3 -5 11 7 80 -98 75
-115 -1 -5 1 -7 6 -4 5 3 15 -7 23 -22 8 -15 22 -36 31 -46 17 -19 22 -31 19
-49 0 -4 4 -6 10 -5 6 2 16 -6 22 -17 7 -11 14 -22 17 -25 3 -3 17 -21 30 -40
13 -19 30 -41 37 -48 7 -7 13 -17 13 -21 0 -4 16 -25 35 -47 19 -21 35 -44 35
-51 0 -6 4 -13 9 -15 16 -6 149 -186 143 -193 -4 -4 -2 -5 4 -3 13 4 76 -67
66 -76 -4 -4 -2 -6 3 -5 13 5 55 -32 55 -48 0 -7 4 -13 10 -13 14 0 60 -52 54
-62 -3 -5 -2 -7 3 -6 12 4 64 -38 56 -46 -3 -3 -2 -6 4 -6 15 0 78 -60 75 -72
-1 -5 1 -7 6 -4 5 3 20 -5 33 -17 14 -12 34 -27 45 -34 10 -6 18 -16 16 -23
-1 -6 2 -9 8 -5 6 4 18 1 26 -6 9 -7 21 -14 28 -15 40 -6 97 -27 117 -43 42
-32 169 -56 152 -28 -4 6 1 8 11 4 9 -4 15 -3 12 2 -5 8 60 46 74 44 3 -1 13
3 24 9 13 7 16 7 12 -1 -4 -6 13 0 38 13 25 14 46 23 46 21 0 -2 11 6 24 18
35 32 55 48 58 45 2 -1 26 20 53 48 28 27 53 48 58 46 4 -1 7 5 7 14 0 10 5
14 16 10 8 -3 13 -2 10 3 -3 4 4 18 15 30 18 19 23 20 37 9 15 -11 15 -11 5 3
-11 13 -7 23 23 57 20 23 40 40 45 36 5 -3 8 0 7 8 -2 7 2 12 8 11 7 -1 11 5
10 15 0 9 5 16 12 14 8 -1 11 1 8 6 -7 12 38 54 49 45 4 -5 5 -3 1 4 -4 7 6
26 24 44 16 18 30 35 30 38 0 3 14 22 31 41 17 19 45 54 61 78 16 23 33 40 38
37 5 -3 12 0 16 6 5 8 3 9 -6 4 -8 -5 -11 -3 -8 6 3 8 11 13 17 11 7 -1 10 1
7 6 -7 12 23 54 35 47 5 -3 6 0 4 7 -3 8 3 23 13 33 10 11 33 43 51 70 19 28
39 55 45 60 6 6 20 26 30 45 11 19 25 40 30 47 29 33 34 41 30 46 -3 2 10 19
28 38 18 18 27 29 19 24 -16 -10 -10 3 25 50 12 17 24 35 26 40 2 6 7 9 11 7
5 -1 6 2 3 7 -8 13 15 62 25 55 5 -3 6 1 3 9 -3 8 3 23 13 32 10 10 17 19 15
19 -2 1 2 15 9 31 14 33 16 40 18 56 0 5 5 8 9 5 5 -3 8 5 8 17 -1 12 4 21 10
20 6 -1 9 8 7 22 -3 13 0 31 7 42 11 17 11 17 6 0 -4 -11 -2 -16 5 -12 6 4 8
14 5 22 -7 17 23 193 33 194 3 0 17 3 31 6 14 3 35 6 47 7 11 1 19 4 17 8 -6
10 52 39 61 30 3 -4 5 0 3 8 -2 8 3 14 10 13 6 -2 12 4 12 12 0 14 12 19 32
16 5 0 7 2 6 7 -4 12 35 71 44 66 5 -3 7 -2 6 3 -1 4 10 36 26 70 25 54 32 61
45 50 14 -10 14 -10 4 4 -9 11 -10 24 -1 52 6 20 14 34 18 32 4 -2 5 8 2 23
-5 25 -4 26 14 12 17 -14 18 -14 6 2 -13 16 -10 67 7 136 3 11 0 173 -4 202
-2 14 -8 44 -13 68 -5 23 -8 42 -5 42 3 0 0 7 -7 15 -7 8 -10 15 -7 15 3 0 -3
21 -12 48 l-17 47 -47 -1 c-26 0 -47 3 -47 8 0 4 -5 8 -11 8 -5 0 -8 -4 -5 -8z
m-3089 -882 c3 -5 1 -10 -4 -10 -6 0 -11 5 -11 10 0 6 2 10 4 10 3 0 8 -4 11
-10z"/>
<path d="M576 3173 c-6 -14 -5 -15 5 -6 7 7 10 15 7 18 -3 3 -9 -2 -12 -12z"/>
<path d="M846 2978 c3 -5 10 -6 15 -3 13 9 11 12 -6 12 -8 0 -12 -4 -9 -9z"/>
<path d="M2935 2980 c3 -5 8 -10 11 -10 2 0 4 5 4 10 0 6 -5 10 -11 10 -5 0
-7 -4 -4 -10z"/>
<path d="M915 2960 c-3 -5 -1 -10 4 -10 6 0 11 5 11 10 0 6 -2 10 -4 10 -3 0
-8 -4 -11 -10z"/>
<path d="M2890 2940 c0 -5 5 -10 11 -10 5 0 7 5 4 10 -3 6 -8 10 -11 10 -2 0
-4 -4 -4 -10z"/>
<path d="M3673 2535 c0 -8 4 -12 9 -9 5 3 6 10 3 15 -9 13 -12 11 -12 -6z"/>
<path d="M3705 2500 c-3 -6 1 -7 9 -4 18 7 21 14 7 14 -6 0 -13 -4 -16 -10z"/>
<path d="M126 2298 c3 -5 10 -6 15 -3 13 9 11 12 -6 12 -8 0 -12 -4 -9 -9z"/>
<path d="M3394 2262 c4 -3 14 -7 22 -8 9 -1 13 0 10 4 -4 3 -14 7 -22 8 -9 1
-13 0 -10 -4z"/>
<path d="M333 2245 c0 -8 4 -12 9 -9 5 3 6 10 3 15 -9 13 -12 11 -12 -6z"/>
<path d="M3315 2250 c-3 -5 -2 -18 4 -27 7 -14 9 -12 8 10 -2 30 -3 31 -12 17z"/>
<path d="M374 2196 c1 -8 5 -18 8 -22 4 -3 5 1 4 10 -1 8 -5 18 -8 22 -4 3 -5
-1 -4 -10z"/>
<path d="M3330 2160 c0 -5 5 -10 11 -10 5 0 7 5 4 10 -3 6 -8 10 -11 10 -2 0
-4 -4 -4 -10z"/>
<path d="M3315 2121 c-3 -5 -2 -12 3 -15 5 -3 9 1 9 9 0 17 -3 19 -12 6z"/>
<path d="M526 1878 c3 -5 10 -6 15 -3 13 9 11 12 -6 12 -8 0 -12 -4 -9 -9z"/>
<path d="M606 1718 c3 -5 10 -6 15 -3 13 9 11 12 -6 12 -8 0 -12 -4 -9 -9z"/>
<path d="M626 1658 c3 -5 10 -6 15 -3 13 9 11 12 -6 12 -8 0 -12 -4 -9 -9z"/>
<path d="M3006 1542 c-3 -5 1 -9 9 -9 8 0 12 4 9 9 -3 4 -7 8 -9 8 -2 0 -6 -4
-9 -8z"/>
<path d="M2973 1475 c0 -8 4 -12 9 -9 5 3 6 10 3 15 -9 13 -12 11 -12 -6z"/>
<path d="M855 1371 c-3 -5 -2 -12 3 -15 5 -3 9 1 9 9 0 17 -3 19 -12 6z"/>
<path d="M2853 1309 c-2 -23 3 -25 10 -4 4 8 3 16 -1 19 -4 3 -9 -4 -9 -15z"/>
<path d="M876 1287 c3 -10 9 -15 12 -12 3 3 0 11 -7 18 -10 9 -11 8 -5 -6z"/>
<path d="M966 1202 c-3 -5 1 -9 9 -9 8 0 12 4 9 9 -3 4 -7 8 -9 8 -2 0 -6 -4
-9 -8z"/>
<path d="M2710 1080 c0 -5 5 -10 11 -10 5 0 7 5 4 10 -3 6 -8 10 -11 10 -2 0
-4 -4 -4 -10z"/>
<path d="M1075 1060 c3 -5 8 -10 11 -10 2 0 4 5 4 10 0 6 -5 10 -11 10 -5 0
-7 -4 -4 -10z"/>
<path d="M2707 1019 c7 -7 15 -10 18 -7 3 3 -2 9 -12 12 -14 6 -15 5 -6 -5z"/>
<path d="M1126 1002 c-3 -5 1 -9 9 -9 8 0 12 4 9 9 -3 4 -7 8 -9 8 -2 0 -6 -4
-9 -8z"/>
<path d="M2679 973 c-13 -16 -12 -17 4 -4 9 7 17 15 17 17 0 8 -8 3 -21 -13z"/>
<path d="M2457 855 c-4 -8 -3 -16 1 -19 4 -3 9 4 9 15 2 23 -3 25 -10 4z"/>
<path d="M2515 861 c-3 -5 -2 -12 3 -15 5 -3 9 1 9 9 0 17 -3 19 -12 6z"/>
<path d="M1275 821 c-3 -5 -2 -12 3 -15 5 -3 9 1 9 9 0 17 -3 19 -12 6z"/>
<path d="M1426 622 c-3 -5 1 -9 9 -9 8 0 12 4 9 9 -3 4 -7 8 -9 8 -2 0 -6 -4
-9 -8z"/>
<path d="M2250 626 c0 -2 7 -7 16 -10 8 -3 12 -2 9 4 -6 10 -25 14 -25 6z"/>
</g>
</svg>
