<?xml version="1.0" encoding="UTF-8"?>
<svg width="465px" height="87px" viewBox="0 0 465 87" version="1.1" xmlns="http://www.w3.org/2000/svg" xmlns:xlink="http://www.w3.org/1999/xlink">
    <!-- Generator: Sketch 46.2 (44496) - http://www.bohemiancoding.com/sketch -->
    <title>BackstopJS</title>
    <desc>Created with Sketch.</desc>
    <defs></defs>
    <g id="Page-1" stroke="none" stroke-width="1" fill="none" fill-rule="evenodd">
        <g id="BackstopJS" fill-rule="nonzero" fill="#4A4A4A">
            <path d="M0,1.598 L26.884,1.598 C30.8946867,1.598 34.2473199,2.09932832 36.942,3.102 C39.6366801,4.10467168 41.7986585,5.42065852 43.428,7.05 C45.0573415,8.67934148 46.2323297,10.5436562 46.953,12.643 C47.6736703,14.7423438 48.034,16.8573227 48.034,18.988 C48.034,20.8053424 47.7206698,22.5286585 47.094,24.158 C46.4673302,25.7873415 45.5743391,27.2286604 44.415,28.482 C43.2556609,29.7353396 41.877008,30.7849958 40.279,31.631 C38.680992,32.4770042 36.9106764,33.0253321 34.968,33.276 L35.156,33.464 C35.5946689,33.401333 36.6286585,33.5893311 38.258,34.028 C39.8873415,34.4666689 41.5949911,35.2969939 43.381,36.519 C45.1670089,37.7410061 46.7649929,39.4329892 48.175,41.595 C49.585007,43.7570108 50.29,46.5299831 50.29,49.914 C50.29,52.984682 49.7260056,55.6793217 48.598,57.998 C47.4699944,60.3166783 45.8876769,62.274992 43.851,63.873 C41.8143231,65.471008 39.3546811,66.6773293 36.472,67.492 C33.5893189,68.3066707 30.3933509,68.714 26.884,68.714 L0,68.714 L0,1.598 Z M26.884,32.054 C32.5866952,32.054 36.8479859,30.7850127 39.668,28.247 C42.4880141,25.7089873 43.898,22.3720207 43.898,18.236 C43.898,15.7919878 43.4280047,13.739675 42.488,12.079 C41.5479953,10.418325 40.2946745,9.07100517 38.728,8.037 C37.1613255,7.00299483 35.3596768,6.26666886 33.323,5.828 C31.2863232,5.38933114 29.1400113,5.17 26.884,5.17 L4.136,5.17 L4.136,32.054 L26.884,32.054 Z M26.884,65.142 C32.9000301,65.142 37.6156496,63.8730127 41.031,61.335 C44.4463504,58.7969873 46.154,54.9900254 46.154,49.914 C46.154,47.0313189 45.5586726,44.6656759 44.368,42.817 C43.1773274,40.9683241 41.6576759,39.5113387 39.809,38.446 C37.9603241,37.3806613 35.8923448,36.6443354 33.605,36.237 C31.3176552,35.8296646 29.0773443,35.626 26.884,35.626 L4.136,35.626 L4.136,65.142 L26.884,65.142 Z M90.616,59.126 L90.428,59.126 C89.8639972,60.5673405 89.0493387,61.9303269 87.984,63.215 C86.9186613,64.4996731 85.618341,65.6433283 84.083,66.646 C82.547659,67.6486717 80.8086764,68.4319972 78.866,68.996 C76.9233236,69.5600028 74.7926783,69.842 72.474,69.842 C67.3353076,69.842 63.3560141,68.7296778 60.536,66.505 C57.7159859,64.2803222 56.306,60.8493565 56.306,56.212 C56.306,53.3919859 56.8699944,51.0890089 57.998,49.303 C59.1260056,47.5169911 60.551658,46.1070052 62.275,45.073 C63.9983419,44.0389948 65.9096562,43.3026689 68.009,42.864 C70.1083438,42.4253311 72.1293236,42.1120009 74.072,41.924 L79.618,41.454 C82.1873462,41.2659991 84.208326,40.9683354 85.681,40.561 C87.153674,40.1536646 88.2659962,39.5896703 89.018,38.869 C89.7700038,38.1483297 90.2399991,37.2240056 90.428,36.096 C90.6160009,34.9679944 90.71,33.5580085 90.71,31.866 C90.71,30.5499934 90.4593358,29.3280056 89.958,28.2 C89.4566642,27.0719944 88.6733387,26.0693377 87.608,25.192 C86.5426613,24.3146623 85.1640085,23.6253358 83.472,23.124 C81.7799915,22.6226642 79.7120122,22.372 77.268,22.372 C72.9439784,22.372 69.4503467,23.4373227 66.787,25.568 C64.1236534,27.6986773 62.6666679,30.9259784 62.416,35.25 L58.844,35.25 C59.0946679,29.9233067 60.8023175,25.9283466 63.967,23.265 C67.1316825,20.6016533 71.6279709,19.27 77.456,19.27 C83.2840291,19.27 87.5296534,20.4136552 90.193,22.701 C92.8563467,24.9883448 94.188,27.9806482 94.188,31.678 L94.188,59.784 C94.188,60.4733368 94.2036665,61.1626632 94.235,61.852 C94.2663335,62.5413368 94.3759991,63.1679972 94.564,63.732 C94.7520009,64.2960028 95.0653311,64.7503316 95.504,65.095 C95.9426689,65.4396684 96.5693293,65.612 97.384,65.612 C98.0106698,65.612 98.8879944,65.5180009 100.016,65.33 L100.016,68.338 C99.0759953,68.5886679 98.1046717,68.714 97.102,68.714 C95.6606595,68.714 94.5170042,68.5260019 93.671,68.15 C92.8249958,67.7739981 92.1826689,67.2726698 91.744,66.646 C91.3053311,66.0193302 91.0076675,65.2830042 90.851,64.437 C90.6943325,63.5909958 90.616,62.6666717 90.616,61.664 L90.616,59.126 Z M90.616,41.266 C89.7386623,42.3313387 88.4070089,43.0519981 86.621,43.428 C84.8349911,43.8040019 82.8453443,44.0859991 80.652,44.274 L74.636,44.838 C72.8813246,45.0260009 71.1266754,45.2923316 69.372,45.637 C67.6173246,45.9816684 66.0350071,46.5613293 64.625,47.376 C63.214993,48.1906707 62.0713377,49.302993 61.194,50.713 C60.3166623,52.1230071 59.878,53.9559887 59.878,56.212 C59.878,59.7840179 61.0059887,62.4316581 63.262,64.155 C65.5180113,65.8783419 68.6199803,66.74 72.568,66.74 C76.6413537,66.74 79.8686548,66.003674 82.25,64.531 C84.6313452,63.058326 86.4486604,61.3663429 87.702,59.455 C88.9553396,57.5436571 89.7543316,55.6950089 90.099,53.909 C90.4436684,52.1229911 90.616,50.9166698 90.616,50.29 L90.616,41.266 Z M141.94,35.344 C141.751999,33.2133227 141.203671,31.3333415 140.295,29.704 C139.386329,28.0746585 138.211341,26.7273387 136.77,25.662 C135.328659,24.5966613 133.652343,23.7820028 131.741,23.218 C129.829657,22.6539972 127.777344,22.372 125.584,22.372 C122.575985,22.372 119.912678,22.9829939 117.594,24.205 C115.275322,25.4270061 113.332675,27.0563231 111.766,29.093 C110.199326,31.1296769 109.008671,33.4483203 108.194,36.049 C107.379329,38.6496797 106.972,41.3286529 106.972,44.086 C106.972,47.344683 107.347996,50.3526529 108.1,53.11 C108.852004,55.8673471 110.011326,58.2643231 111.578,60.301 C113.144674,62.3376768 115.087322,63.9199944 117.406,65.048 C119.724678,66.1760056 122.450651,66.74 125.584,66.74 C127.840011,66.74 129.923657,66.3640038 131.835,65.612 C133.746343,64.8599962 135.438326,63.8260066 136.911,62.51 C138.383674,61.1939934 139.589995,59.6116759 140.53,57.763 C141.470005,55.9143241 142.096665,53.8933443 142.41,51.7 L145.982,51.7 C145.605998,54.5826811 144.822673,57.1519887 143.632,59.408 C142.441327,61.6640113 140.937342,63.559659 139.12,65.095 C137.302658,66.630341 135.234678,67.8053293 132.916,68.62 C130.597322,69.4346707 128.153346,69.842 125.584,69.842 C121.63598,69.842 118.267681,69.1370071 115.479,67.727 C112.690319,66.3169929 110.403009,64.4213452 108.617,62.04 C106.830991,59.6586548 105.515004,56.9170155 104.669,53.815 C103.822996,50.7129845 103.4,47.4700169 103.4,44.086 C103.4,40.7019831 103.885662,37.506015 104.857,34.498 C105.828338,31.489985 107.253991,28.8580113 109.134,26.602 C111.014009,24.3459887 113.332653,22.5600066 116.09,21.244 C118.847347,19.9279934 122.011982,19.27 125.584,19.27 C128.216013,19.27 130.675655,19.5989967 132.963,20.257 C135.250345,20.9150033 137.286991,21.9019934 139.073,23.218 C140.859009,24.5340066 142.315994,26.2103232 143.444,28.247 C144.572006,30.2836769 145.261332,32.6493199 145.512,35.344 L141.94,35.344 Z M154.536,1.598 L158.108,1.598 L158.108,46.06 L187.906,20.398 L193.076,20.398 L171.926,38.446 L194.58,68.714 L189.692,68.714 L169.106,41.172 L158.108,50.478 L158.108,68.714 L154.536,68.714 L154.536,1.598 Z M199.562,52.64 C199.687334,54.8960113 200.188662,56.8856581 201.066,58.609 C201.943338,60.3323419 203.086993,61.8049939 204.497,63.027 C205.907007,64.2490061 207.551991,65.1733302 209.432,65.8 C211.312009,66.4266698 213.348656,66.74 215.542,66.74 C217.108675,66.74 218.784991,66.5990014 220.571,66.317 C222.357009,66.0349986 224.017659,65.5180038 225.553,64.766 C227.088341,64.0139962 228.357328,62.9643401 229.36,61.617 C230.362672,60.2696599 230.864,58.5620103 230.864,56.494 C230.864,53.7993199 230.049341,51.7626736 228.42,50.384 C226.790659,49.0053264 224.738346,47.9400038 222.263,47.188 C219.787654,46.4359962 217.124348,45.8250024 214.273,45.355 C211.421652,44.8849977 208.758346,44.1800047 206.283,43.24 C203.807654,42.2999953 201.755341,40.968342 200.126,39.245 C198.496659,37.521658 197.682,34.9993499 197.682,31.678 C197.682,29.2966548 198.214661,27.307008 199.28,25.709 C200.345339,24.110992 201.708325,22.8420047 203.369,21.902 C205.029675,20.9619953 206.89399,20.2883354 208.962,19.881 C211.03001,19.4736646 213.09799,19.27 215.166,19.27 C217.672679,19.27 220.022656,19.5519972 222.216,20.116 C224.409344,20.6800028 226.304992,21.5886604 227.903,22.842 C229.501008,24.0953396 230.754329,25.6933236 231.663,27.636 C232.571671,29.5786764 233.026,31.9286529 233.026,34.686 L229.454,34.686 C229.454,32.4926557 229.09367,30.6126745 228.373,29.046 C227.65233,27.4793255 226.649673,26.2103382 225.365,25.239 C224.080327,24.2676618 222.560675,23.5470024 220.806,23.077 C219.051325,22.6069976 217.171343,22.372 215.166,22.372 C213.536659,22.372 211.891675,22.5286651 210.231,22.842 C208.570325,23.1553349 207.082007,23.6879962 205.766,24.44 C204.449993,25.1920038 203.369004,26.1633274 202.523,27.354 C201.676996,28.5446726 201.254,29.9859915 201.254,31.678 C201.254,33.6206764 201.723995,35.1873274 202.664,36.378 C203.604005,37.5686726 204.841659,38.5243297 206.377,39.245 C207.912341,39.9656703 209.635657,40.5453311 211.547,40.984 C213.458343,41.4226689 215.385324,41.8613311 217.328,42.3 C219.709345,42.7386689 221.949656,43.2556637 224.049,43.851 C226.148344,44.4463363 227.965659,45.2609948 229.501,46.295 C231.036341,47.3290052 232.242662,48.6606585 233.12,50.29 C233.997338,51.9193415 234.436,53.9873208 234.436,56.494 C234.436,59.1260132 233.840673,61.2879915 232.65,62.98 C231.459327,64.6720085 229.955342,66.0349948 228.138,67.069 C226.320658,68.1030052 224.299678,68.8236646 222.075,69.231 C219.850322,69.6383354 217.672677,69.842 215.542,69.842 C212.784653,69.842 210.231012,69.4816703 207.881,68.761 C205.530988,68.0403297 203.478675,66.943674 201.724,65.471 C199.969325,63.998326 198.590672,62.1966773 197.588,60.066 C196.585328,57.9353227 196.052667,55.4600141 195.99,52.64 L199.562,52.64 Z M260.85,23.5 L250.322,23.5 L250.322,57.246 C250.322,59.1886764 250.541331,60.7239944 250.98,61.852 C251.418669,62.9800056 252.092329,63.8416637 253.001,64.437 C253.909671,65.0323363 255.006327,65.392666 256.291,65.518 C257.575673,65.643334 259.063992,65.674667 260.756,65.612 L260.756,68.714 C258.938658,68.839334 257.168342,68.8236675 255.445,68.667 C253.721658,68.5103325 252.202007,68.0403372 250.886,67.257 C249.569993,66.4736627 248.520337,65.2986745 247.737,63.732 C246.953663,62.1653255 246.624666,60.0033471 246.75,57.246 L246.75,23.5 L237.82,23.5 L237.82,20.398 L246.75,20.398 L246.75,5.358 L250.322,5.358 L250.322,20.398 L260.85,20.398 L260.85,23.5 Z M263.858,44.556 C263.858,41.1093161 264.343662,37.8663485 265.315,34.827 C266.286338,31.7876515 267.711991,29.1086783 269.592,26.79 C271.472009,24.4713217 273.790653,22.6383401 276.548,21.291 C279.305347,19.9436599 282.469982,19.27 286.042,19.27 C289.614018,19.27 292.778653,19.9436599 295.536,21.291 C298.293347,22.6383401 300.611991,24.4713217 302.492,26.79 C304.372009,29.1086783 305.797662,31.7876515 306.769,34.827 C307.740338,37.8663485 308.226,41.1093161 308.226,44.556 C308.226,48.0026839 307.740338,51.261318 306.769,54.332 C305.797662,57.402682 304.372009,60.0816552 302.492,62.369 C300.611991,64.6563448 298.293347,66.4736599 295.536,67.821 C292.778653,69.1683401 289.614018,69.842 286.042,69.842 C282.469982,69.842 279.305347,69.1683401 276.548,67.821 C273.790653,66.4736599 271.472009,64.6563448 269.592,62.369 C267.711991,60.0816552 266.286338,57.402682 265.315,54.332 C264.343662,51.261318 263.858,48.0026839 263.858,44.556 Z M267.43,44.556 C267.43,47.4386811 267.837329,50.2116533 268.652,52.875 C269.466671,55.5383466 270.657325,57.9039897 272.224,59.972 C273.790674,62.0400103 275.733322,63.6849939 278.052,64.907 C280.370678,66.1290061 283.033985,66.74 286.042,66.74 C289.050015,66.74 291.713322,66.1290061 294.032,64.907 C296.350678,63.6849939 298.293325,62.0400103 299.86,59.972 C301.426674,57.9039897 302.617329,55.5383466 303.432,52.875 C304.246671,50.2116533 304.654,47.4386811 304.654,44.556 C304.654,41.6733189 304.246671,38.9003467 303.432,36.237 C302.617329,33.5736534 301.426674,31.2080103 299.86,29.14 C298.293325,27.0719897 296.350678,25.4270061 294.032,24.205 C291.713322,22.9829939 289.050015,22.372 286.042,22.372 C283.033985,22.372 280.370678,22.9829939 278.052,24.205 C275.733322,25.4270061 273.790674,27.0719897 272.224,29.14 C270.657325,31.2080103 269.466671,33.5736534 268.652,36.237 C267.837329,38.9003467 267.43,41.6733189 267.43,44.556 Z M321.01,31.49 L321.198,31.49 C321.574002,30.2993274 322.200662,28.9833405 323.078,27.542 C323.955338,26.1006595 325.114659,24.7690061 326.556,23.547 C327.997341,22.3249939 329.736323,21.3066707 331.773,20.492 C333.809677,19.6773293 336.143987,19.27 338.776,19.27 C342.473352,19.27 345.684986,19.9593264 348.411,21.338 C351.137014,22.7166736 353.392991,24.5653217 355.179,26.884 C356.965009,29.2026783 358.296662,31.897318 359.174,34.968 C360.051338,38.038682 360.49,41.2659831 360.49,44.65 C360.49,48.3473518 360.051338,51.731318 359.174,54.802 C358.296662,57.872682 356.965009,60.5203222 355.179,62.745 C353.392991,64.9696778 351.137014,66.7086604 348.411,67.962 C345.684986,69.2153396 342.473352,69.842 338.776,69.842 C334.765313,69.842 331.193349,68.9646754 328.06,67.21 C324.926651,65.4553246 322.639341,62.6040197 321.198,58.656 L321.01,58.656 L321.01,86.01 L317.438,86.01 L317.438,20.398 L321.01,20.398 L321.01,31.49 Z M338.776,66.74 C341.909349,66.74 344.619655,66.1446726 346.907,64.954 C349.194345,63.7633274 351.074326,62.1653434 352.547,60.16 C354.019674,58.1546566 355.11633,55.8203466 355.837,53.157 C356.55767,50.4936533 356.918,47.658015 356.918,44.65 C356.918,41.8926529 356.573337,39.1823466 355.884,36.519 C355.194663,33.8556534 354.129341,31.4743438 352.688,29.375 C351.246659,27.2756562 349.382345,25.5836731 347.095,24.299 C344.807655,23.0143269 342.034683,22.372 338.776,22.372 C335.579984,22.372 332.854011,22.9986604 330.598,24.252 C328.341989,25.5053396 326.509007,27.1659897 325.099,29.234 C323.688993,31.3020103 322.67067,33.6676533 322.044,36.331 C321.41733,38.9943467 321.104,41.7673189 321.104,44.65 C321.104,47.5326811 321.385997,50.3056533 321.95,52.969 C322.514003,55.6323466 323.46966,57.9823231 324.817,60.019 C326.16434,62.0556768 327.981655,63.6849939 330.269,64.907 C332.556345,66.1290061 335.391983,66.74 338.776,66.74 Z M383.99,66.74 C387.812686,66.74 390.742323,66.1133396 392.779,64.86 C394.815677,63.6066604 396.272662,62.0086764 397.15,60.066 C398.027338,58.1233236 398.513,55.9456787 398.607,53.533 C398.701,51.1203213 398.748,48.7546783 398.748,46.436 L398.748,1.598 L402.884,1.598 L402.884,47.846 C402.884,49.1620066 402.868333,50.6346585 402.837,52.264 C402.805667,53.8933415 402.617668,55.538325 402.273,57.199 C401.928332,58.859675 401.39567,60.4733255 400.675,62.04 C399.95433,63.6066745 398.904674,65.0009939 397.526,66.223 C396.147326,67.4450061 394.408344,68.4319962 392.309,69.184 C390.209656,69.9360038 387.593349,70.312 384.46,70.312 C379.947977,70.312 376.407346,69.5913405 373.838,68.15 C371.268654,66.7086595 369.373006,64.8600113 368.151,62.604 C366.928994,60.3479887 366.177001,57.8726801 365.895,55.178 C365.612999,52.4833199 365.472,49.8826792 365.472,47.376 L369.608,47.376 C369.419999,49.8826792 369.451332,52.2953217 369.702,54.614 C369.952668,56.9326783 370.579328,58.9849911 371.582,60.771 C372.584672,62.5570089 374.07299,63.9983279 376.047,65.095 C378.02101,66.1916721 380.66865,66.74 383.99,66.74 Z M458.532,20.774 C458.406666,17.8913189 457.795672,15.3846773 456.699,13.254 C455.602328,11.1233227 454.114009,9.33734054 452.234,7.896 C450.353991,6.45465946 448.11368,5.37367027 445.513,4.653 C442.91232,3.93232973 440.076682,3.572 437.006,3.572 C435.125991,3.572 433.105011,3.79133114 430.943,4.23 C428.780989,4.66866886 426.775676,5.43632785 424.927,6.533 C423.078324,7.62967215 421.558673,9.10232409 420.368,10.951 C419.177327,12.7996759 418.582,15.1026529 418.582,17.86 C418.582,20.5546801 419.239993,22.7479915 420.556,24.44 C421.872007,26.1320085 423.595323,27.4949948 425.726,28.529 C427.856677,29.5630052 430.300653,30.3933302 433.058,31.02 C435.815347,31.6466698 438.603986,32.2419972 441.424,32.806 C444.306681,33.3700028 447.110986,34.0436628 449.837,34.827 C452.563014,35.6103372 455.006989,36.6756599 457.169,38.023 C459.331011,39.3703401 461.069993,41.1249892 462.386,43.287 C463.702007,45.4490108 464.36,48.159317 464.36,51.418 C464.36,54.9273509 463.608008,57.8726548 462.104,60.254 C460.599992,62.6353452 458.704345,64.5779925 456.417,66.082 C454.129655,67.5860075 451.591681,68.6669967 448.803,69.325 C446.014319,69.9830033 443.335346,70.312 440.766,70.312 C436.81798,70.312 433.120684,69.8890042 429.674,69.043 C426.227316,68.1969958 423.219346,66.8183429 420.65,64.907 C418.080654,62.9956571 416.059674,60.536015 414.587,57.528 C413.114326,54.519985 412.409333,50.8540216 412.472,46.53 L416.608,46.53 C416.419999,50.2273518 416.95266,53.3449873 418.206,55.883 C419.45934,58.4210127 421.198322,60.5046585 423.423,62.134 C425.647678,63.7633415 428.263985,64.9383297 431.272,65.659 C434.280015,66.3796703 437.44465,66.74 440.766,66.74 C442.771343,66.74 444.917655,66.4893358 447.205,65.988 C449.492345,65.4866642 451.591657,64.6406726 453.503,63.45 C455.414343,62.2593274 457.012327,60.6926764 458.297,58.75 C459.581673,56.8073236 460.224,54.3633481 460.224,51.418 C460.224,48.5979859 459.566007,46.2950089 458.25,44.509 C456.933993,42.7229911 455.195011,41.2816722 453.033,40.185 C450.870989,39.0883278 448.427014,38.2110033 445.701,37.553 C442.974986,36.8949967 440.170681,36.2840028 437.288,35.72 C434.467986,35.1559972 431.679347,34.4980038 428.922,33.746 C426.164653,32.9939962 423.720677,31.9756731 421.59,30.691 C419.459323,29.4063269 417.736007,27.7456768 416.42,25.709 C415.103993,23.6723232 414.446,21.056016 414.446,17.86 C414.446,14.663984 415.11966,11.9223448 416.467,9.635 C417.81434,7.34765523 419.568989,5.49900705 421.731,4.089 C423.893011,2.67899295 426.32132,1.64500329 429.016,0.987 C431.71068,0.32899671 434.373987,0 437.006,0 C440.515351,0 443.789651,0.39166275 446.829,1.175 C449.868349,1.95833725 452.531655,3.18032503 454.819,4.841 C457.106345,6.50167497 458.939326,8.64798684 460.318,11.28 C461.696674,13.9120132 462.479999,17.0766482 462.668,20.774 L458.532,20.774 Z" id="BackstopJS-3-svg"></path>
        </g>
    </g>
</svg>