<?xml version="1.0" encoding="UTF-8"?>
<svg width="335px" height="334px" viewBox="0 0 335 334" version="1.1" xmlns="http://www.w3.org/2000/svg" xmlns:xlink="http://www.w3.org/1999/xlink">
    <!-- Generator: Sketch 46.2 (44496) - http://www.bohemiancoding.com/sketch -->
    <title>Group</title>
    <desc>Created with Sketch.</desc>
    <defs></defs>
    <g id="Page-1" stroke="none" stroke-width="1" fill="none" fill-rule="evenodd">
        <g id="Group">
            <polygon id="Fill-1" fill="none" points="0.05004 334 334.00996 334 334.00996 0 0.05004 0"></polygon>
            <path d="M166.999,77.703 C158.054,77.824 103.825,78.56 93.078,78.56 C81.357,78.56 47.813,87.754 44.58,121.019 C41.346,154.29 67.615,190.186 90.652,221.264 C113.688,252.341 139.152,277.293 149.659,280.799 C157.126,283.285 163.775,277.372 166.999,273.744 L166.999,77.703" id="Fill-3" fill="#746E63"></path>
            <path d="M45.621,114.687 C52.624,110.245 63.533,105.505 78.732,104.824 C107.686,103.536 141.663,121.621 166.999,121.475 L166.999,77.703 C158.054,77.824 103.825,78.56 93.078,78.56 C82.139,78.56 52.196,86.569 45.621,114.687" id="Fill-4" fill="#493E2D"></path>
            <path d="M99.799,233.138 C109.098,234.845 122.594,235.97 133.292,231.333 C150.558,223.852 156.334,208.49 166.999,197.588 L166.999,273.744 C163.775,277.372 157.126,283.285 149.659,280.799 C140.53,277.754 120.11,258.515 99.799,233.138" id="Fill-5" fill="#30281A"></path>
            <path d="M151.116,217.563 C149.396,227.511 147.156,240.454 147.035,241.232 L147.596,241.712 C147.204,241.585 147.005,241.427 147.035,241.232 C147.035,241.232 147.035,241.232 155.523,237.021 C160.907,234.347 164.842,233.041 166.999,232.445 L166.999,197.582 C161.133,203.58 156.746,210.921 151.116,217.563" id="Fill-6" fill="#493E2D"></path>
            <path d="M147.035,241.232 C147.035,241.232 161.298,253.495 166.999,257.488 L166.999,232.445 C164.842,233.041 160.907,234.347 155.523,237.021 C147.035,241.232 147.035,241.232 147.035,241.232" id="Fill-7" fill="#090100"></path>
            <path d="M166.999,287.289 C164.594,286.718 159.6,285.138 154.996,281.261 C160.196,280.507 164.568,276.478 166.999,273.744 L166.999,287.289" id="Fill-8" fill="#1A1919"></path>
            <path d="M144.51,181.539 C144.51,181.539 89.835,195.838 72.166,180.664 C54.496,165.49 67.315,130.323 89.949,128.135 C112.582,125.947 144.51,181.539 144.51,181.539" id="Fill-9" fill="#201A0F"></path>
            <path d="M99.904,141.997 C88.457,139.754 77.73,146.621 75.944,157.329 C74.161,168.03 81.996,178.525 93.443,180.761 C104.89,182.997 115.619,176.137 117.402,165.435 C119.186,154.728 111.352,144.233 99.904,141.997" id="Fill-10" fill="#EA9241"></path>
            <path d="M94.596,156.15 C92.477,156.15 90.757,158.015 90.757,160.306 C90.757,162.604 92.477,164.469 94.596,164.469 C96.718,164.469 98.436,162.604 98.436,160.306 C98.436,158.015 96.718,156.15 94.596,156.15" id="Fill-11" fill="#0C0300"></path>
            <path d="M78.283,81.361 C65.419,60.493 37.742,46.717 16.189,46.717 C16.189,46.717 2.043,75.606 16.593,107.559 C25.099,126.245 36.506,131.01 44.515,131.745 C44.229,128.147 44.235,124.568 44.58,121.019 C46.857,97.599 64.154,86.113 78.283,81.361" id="Fill-12" fill="#615D55"></path>
            <path d="M24.143,61.356 C24.143,61.356 26.495,78.888 34.577,93.333 C39.114,101.439 44.404,105.037 48.251,106.842 C46.394,110.992 45.098,115.696 44.58,121.019 C44.516,121.688 44.466,122.35 44.425,123.018 C39.916,120.703 33.098,115.605 27.472,104.617 C18.177,86.448 24.143,61.356 24.143,61.356" id="Fill-13" fill="#201A0F"></path>
            <path d="M167.001,77.697 C175.946,77.819 230.175,78.554 240.92,78.554 C252.642,78.554 286.185,87.748 289.42,121.013 C292.653,154.284 266.385,190.18 243.348,221.258 C220.31,252.335 194.848,277.286 184.341,280.793 C176.874,283.278 170.225,277.372 167.001,273.738 L167.001,77.697" id="Fill-14" fill="#676156"></path>
            <path d="M288.379,114.675 C281.374,110.239 270.466,105.499 255.266,104.818 C226.314,103.53 192.335,121.615 167.001,121.469 L167.001,77.697 C175.946,77.819 230.175,78.554 240.92,78.554 C251.86,78.554 281.804,86.563 288.379,114.675" id="Fill-15" fill="#3A3224"></path>
            <path d="M234.201,233.132 C224.9,234.839 211.406,235.964 200.706,231.327 C183.442,223.846 177.664,208.484 167.001,197.582 L167.001,273.738 C170.225,277.372 176.874,283.278 184.341,280.793 C193.47,277.749 213.89,258.509 234.201,233.132" id="Fill-16" fill="#221B0C"></path>
            <path d="M182.884,217.557 C184.604,227.505 186.842,240.448 186.965,241.226 L186.404,241.706 C186.796,241.579 186.995,241.421 186.965,241.226 C186.965,241.226 186.965,241.226 178.477,237.015 C173.093,234.341 169.156,233.035 167.001,232.439 L167.001,197.576 C172.866,203.574 177.254,210.915 182.884,217.557" id="Fill-17" fill="#393021"></path>
            <path d="M186.965,241.226 C186.965,241.226 172.702,253.49 167.001,257.482 L167.001,232.439 C169.156,233.035 173.093,234.341 178.477,237.015 C186.965,241.226 186.965,241.226 186.965,241.226" id="Fill-18" fill="#020009"></path>
            <path d="M167.001,287.283 C169.406,286.712 174.399,285.132 179.004,281.255 C173.804,280.501 169.43,276.472 167.001,273.738 L167.001,287.283" id="Fill-19" fill="#030304"></path>
            <path d="M189.49,181.533 C189.49,181.533 244.165,195.832 261.834,180.658 C279.503,165.484 266.683,130.317 244.051,128.129 C221.418,125.941 189.49,181.533 189.49,181.533" id="Fill-20" fill="#170F00"></path>
            <path d="M234.096,141.991 C245.543,139.748 256.271,146.615 258.054,157.323 C259.839,168.024 252.004,178.519 240.557,180.755 C229.108,182.997 218.381,176.13 216.597,165.429 C214.812,154.721 222.647,144.227 234.096,141.991" id="Fill-21" fill="#C37A33"></path>
            <path d="M239.402,156.144 C241.523,156.144 243.242,158.003 243.242,160.3 C243.242,162.604 241.523,164.463 239.402,164.463 C237.281,164.463 235.563,162.604 235.563,160.3 C235.563,158.003 237.281,156.144 239.402,156.144" id="Fill-22" fill="#0C0300"></path>
            <path d="M255.716,81.355 C268.581,60.487 296.256,46.711 317.811,46.711 C317.811,46.711 331.957,75.6 317.407,107.553 C308.899,126.239 297.495,131.003 289.484,131.739 C289.771,128.141 289.763,124.562 289.42,121.013 C287.142,97.593 269.846,86.107 255.716,81.355" id="Fill-23" fill="#55514A"></path>
            <path d="M309.857,61.35 C309.857,61.35 307.503,78.882 299.421,93.327 C294.886,101.433 289.596,105.031 285.75,106.836 C287.604,110.986 288.902,115.69 289.42,121.013 C289.484,121.682 289.532,122.344 289.575,123.012 C294.084,120.697 300.902,115.598 306.528,104.611 C315.823,86.441 309.857,61.35 309.857,61.35" id="Fill-24" fill="#160E01"></path>
        </g>
    </g>
</svg>
